<?xml version="1.0" standalone="no"?>
<!DOCTYPE svg PUBLIC "-//W3C//DTD SVG 20010904//EN"
 "http://www.w3.org/TR/2001/REC-SVG-20010904/DTD/svg10.dtd">
<svg version="1.0" xmlns="http://www.w3.org/2000/svg"
 width="700.000000pt" height="700.000000pt" viewBox="0 0 700.000000 700.000000"
 preserveAspectRatio="xMidYMid meet">
<metadata>
Created by potrace 1.11, written by Peter Selinger 2001-2013
</metadata>
<g transform="translate(0.000000,700.000000) scale(0.100000,-0.100000)"
fill="#000000" stroke="none">
<path d="M2108 4975 c-2 -1 -28 -5 -58 -9 -30 -3 -64 -8 -75 -10 -95 -21 -129
-30 -188 -53 -432 -163 -692 -564 -753 -1158 -6 -57 -6 -383 0 -425 3 -19 8
-57 11 -85 48 -402 243 -761 514 -944 79 -54 214 -120 278 -136 82 -21 145
-35 178 -40 76 -13 301 -12 385 1 138 22 149 24 239 56 253 88 446 258 558
489 42 84 71 162 79 209 3 14 9 41 15 60 5 19 12 71 15 115 l6 80 -253 -1
c-140 -1 -257 -2 -261 -3 -4 0 -10 -22 -13 -48 -16 -120 -82 -266 -152 -337
-52 -53 -170 -126 -213 -131 -3 -1 -18 -4 -35 -8 -66 -16 -83 -18 -170 -18
-316 0 -542 217 -619 592 -25 123 -29 177 -30 339 -1 269 30 440 109 608 80
169 194 282 339 337 87 33 121 38 237 38 273 0 462 -157 530 -439 l12 -51 254
0 255 0 -6 61 c-19 197 -60 318 -151 456 -143 214 -400 383 -658 431 -29 5
-63 12 -77 15 -26 5 -296 14 -302 9z"/>
<path d="M3621 4930 c-5 -3 -8 -620 -8 -1372 l0 -1368 131 -1 c162 -1 377 -1
394 0 9 1 12 132 12 621 0 489 3 620 13 621 63 6 1010 2 1014 -4 2 -4 4 -284
4 -622 l0 -615 37 -1 c44 -1 177 -1 363 0 l136 1 0 1370 c0 977 -3 1370 -11
1371 -54 5 -510 2 -519 -3 -7 -4 -10 -168 -11 -515 l-1 -508 -495 0 c-272 0
-503 1 -512 3 -17 4 -18 39 -20 515 l-3 511 -258 0 c-143 1 -262 -1 -266 -4z"/>
</g>
</svg>
